<svg xmlns="http://www.w3.org/2000/svg" width="720" height="440" viewBox="0 0 720 440" font-family="sans-serif" font-size="13">
<rect width="720" height="440" fill="white"/>
<text x="360" y="22" text-anchor="middle" font-size="16">Biomimicry ablation: contribution of the barrier and the gate</text>
<line x1="74" y1="376.0" x2="560" y2="376.0" stroke="#e8e8e8"/>
<text x="66" y="380.0" text-anchor="end">0</text>
<line x1="74" y1="292.0" x2="560" y2="292.0" stroke="#e8e8e8"/>
<text x="66" y="296.0" text-anchor="end">5.01</text>
<line x1="74" y1="208.0" x2="560" y2="208.0" stroke="#e8e8e8"/>
<text x="66" y="212.0" text-anchor="end">10.03</text>
<line x1="74" y1="124.0" x2="560" y2="124.0" stroke="#e8e8e8"/>
<text x="66" y="128.0" text-anchor="end">15.04</text>
<line x1="74" y1="40.0" x2="560" y2="40.0" stroke="#e8e8e8"/>
<text x="66" y="44.0" text-anchor="end">20.05</text>
<line x1="74" y1="376.0" x2="560" y2="376.0" stroke="#333"/>
<line x1="74" y1="376" x2="74" y2="40" stroke="#333"/>
<text x="18" y="208" text-anchor="middle" transform="rotate(-90 18 208)">value (violations count; quality in [0,1])</text>
<rect x="86.2" y="342.5" width="43.7" height="33.5" fill="#2f6f9f"/>
<text x="108.0" y="338.5" text-anchor="middle" font-size="11">2</text>
<rect x="134.8" y="361.2" width="43.7" height="14.8" fill="#c25a3d"/>
<text x="156.6" y="357.2" text-anchor="middle" font-size="11">0.88</text>
<text x="135" y="394" text-anchor="middle">full</text>
<rect x="207.7" y="342.5" width="43.7" height="33.5" fill="#2f6f9f"/>
<text x="229.5" y="338.5" text-anchor="middle" font-size="11">2</text>
<rect x="256.2" y="361.2" width="43.7" height="14.8" fill="#c25a3d"/>
<text x="278.1" y="357.2" text-anchor="middle" font-size="11">0.88</text>
<text x="256" y="394" text-anchor="middle">minus_barrier</text>
<rect x="329.1" y="40.8" width="43.7" height="335.2" fill="#2f6f9f"/>
<text x="351.0" y="36.8" text-anchor="middle" font-size="11">20</text>
<rect x="377.8" y="361.3" width="43.7" height="14.7" fill="#c25a3d"/>
<text x="399.6" y="357.3" text-anchor="middle" font-size="11">0.88</text>
<text x="378" y="394" text-anchor="middle">minus_gate</text>
<rect x="450.6" y="40.0" width="43.7" height="336.0" fill="#2f6f9f"/>
<text x="472.5" y="36.0" text-anchor="middle" font-size="11">20.05</text>
<rect x="499.2" y="361.3" width="43.7" height="14.7" fill="#c25a3d"/>
<text x="521.1" y="357.3" text-anchor="middle" font-size="11">0.88</text>
<text x="499" y="394" text-anchor="middle">plain_auction</text>
<rect x="576" y="46" width="14" height="14" fill="#2f6f9f"/>
<text x="594" y="58">integrity violations</text>
<rect x="576" y="68" width="14" height="14" fill="#c25a3d"/>
<text x="594" y="80">mean quality</text>
</svg>