<svg xmlns="http://www.w3.org/2000/svg" width="720" height="440" viewBox="0 0 720 440" font-family="sans-serif" font-size="13">
<rect width="720" height="440" fill="white"/>
<text x="360" y="22" text-anchor="middle" font-size="16">Biomimicry ablation: contribution of the barrier and the gate</text>
<line x1="70" y1="380.0" x2="560" y2="380.0" stroke="#333"/>
<line x1="70" y1="380" x2="70" y2="40" stroke="#333"/>
<text x="18" y="210" text-anchor="middle" transform="rotate(-90 18 210)">value (violations count; quality in [0,1])</text>
<rect x="82.2" y="346.1" width="44.1" height="33.9" fill="#2f6f9f"/>
<rect x="131.2" y="365.0" width="44.1" height="15.0" fill="#c25a3d"/>
<text x="131" y="398" text-anchor="middle">full</text>
<rect x="204.8" y="346.1" width="44.1" height="33.9" fill="#2f6f9f"/>
<rect x="253.8" y="365.0" width="44.1" height="15.0" fill="#c25a3d"/>
<text x="254" y="398" text-anchor="middle">minus_barrier</text>
<rect x="327.2" y="40.8" width="44.1" height="339.2" fill="#2f6f9f"/>
<rect x="376.2" y="365.1" width="44.1" height="14.9" fill="#c25a3d"/>
<text x="376" y="398" text-anchor="middle">minus_gate</text>
<rect x="449.8" y="40.0" width="44.1" height="340.0" fill="#2f6f9f"/>
<rect x="498.8" y="365.1" width="44.1" height="14.9" fill="#c25a3d"/>
<text x="499" y="398" text-anchor="middle">plain_auction</text>
<rect x="576" y="46" width="14" height="14" fill="#2f6f9f"/>
<text x="594" y="58">integrity violations</text>
<rect x="576" y="68" width="14" height="14" fill="#c25a3d"/>
<text x="594" y="80">mean quality</text>
</svg>