<svg xmlns="http://www.w3.org/2000/svg" width="720" height="440" viewBox="0 0 720 440" font-family="sans-serif" font-size="13">
<rect width="720" height="440" fill="white"/>
<text x="360" y="22" text-anchor="middle" font-size="16">Two-sided calibration: stated confidence vs realised pass rate</text>
<line x1="70" y1="380" x2="560" y2="380" stroke="#333"/>
<line x1="70" y1="380" x2="70" y2="40" stroke="#333"/>
<text x="315" y="422" text-anchor="middle">stated confidence</text>
<text x="18" y="210" text-anchor="middle" transform="rotate(-90 18 210)">realised pass rate</text>
<path d="M70.0 380.0 L560.0 40.0" fill="none" stroke="#2f6f9f" stroke-width="2.5"/>
<circle cx="70.0" cy="380.0" r="3" fill="#2f6f9f"/>
<circle cx="560.0" cy="40.0" r="3" fill="#2f6f9f"/>
<rect x="576" y="46" width="14" height="14" fill="#2f6f9f"/>
<text x="594" y="58">perfect calibration</text>
<path d="M487.0 40.0 L521.1 40.0" fill="none" stroke="#c25a3d" stroke-width="2.5"/>
<circle cx="487.0" cy="40.0" r="3" fill="#c25a3d"/>
<circle cx="521.1" cy="40.0" r="3" fill="#c25a3d"/>
<rect x="576" y="68" width="14" height="14" fill="#c25a3d"/>
<text x="594" y="80">OOD tier (overconfident arm)</text>
<path d="M440.4 40.0 L488.5 58.4 L522.5 47.4" fill="none" stroke="#4c9a6a" stroke-width="2.5"/>
<circle cx="440.4" cy="40.0" r="3" fill="#4c9a6a"/>
<circle cx="488.5" cy="58.4" r="3" fill="#4c9a6a"/>
<circle cx="522.5" cy="47.4" r="3" fill="#4c9a6a"/>
<rect x="576" y="90" width="14" height="14" fill="#4c9a6a"/>
<text x="594" y="102">in-distribution ladder (underconfident arm)</text>
<text x="70" y="398" text-anchor="middle">0</text>
<text x="560" y="398" text-anchor="middle">1</text>
<text x="62" y="380" text-anchor="end">0</text>
<text x="62" y="50" text-anchor="end">1</text>
</svg>