<svg xmlns="http://www.w3.org/2000/svg" width="520" height="332" viewBox="0 0 520 332" font-family="sans-serif" font-size="13">
<rect width="520" height="332" fill="white"/>
<text x="260" y="26" text-anchor="middle" font-size="16">Recovery: overconfidence bias by competence spread</text>
<rect x="96" y="52" width="94" height="52" fill="#3472a1"/>
<text x="143" y="83" text-anchor="middle" fill="#ffffff">0.41</text>
<rect x="192" y="52" width="94" height="52" fill="#3c78a5"/>
<text x="239" y="83" text-anchor="middle" fill="#ffffff">0.39</text>
<rect x="288" y="52" width="94" height="52" fill="#8aafca"/>
<text x="335" y="83" text-anchor="middle" fill="#1a1a1a">0.24</text>
<rect x="384" y="52" width="94" height="52" fill="#ecf3f8"/>
<text x="431" y="83" text-anchor="middle" fill="#1a1a1a">0.05</text>
<rect x="96" y="106" width="94" height="52" fill="#2f6f9f"/>
<text x="143" y="137" text-anchor="middle" fill="#ffffff">0.42</text>
<rect x="192" y="106" width="94" height="52" fill="#427ca8"/>
<text x="239" y="137" text-anchor="middle" fill="#ffffff">0.38</text>
<rect x="288" y="106" width="94" height="52" fill="#87acc8"/>
<text x="335" y="137" text-anchor="middle" fill="#1a1a1a">0.24</text>
<rect x="384" y="106" width="94" height="52" fill="#eef4f9"/>
<text x="431" y="137" text-anchor="middle" fill="#1a1a1a">0.04</text>
<rect x="96" y="160" width="94" height="52" fill="#3271a0"/>
<text x="143" y="191" text-anchor="middle" fill="#ffffff">0.41</text>
<rect x="192" y="160" width="94" height="52" fill="#457ea9"/>
<text x="239" y="191" text-anchor="middle" fill="#ffffff">0.38</text>
<rect x="288" y="160" width="94" height="52" fill="#8bafca"/>
<text x="335" y="191" text-anchor="middle" fill="#1a1a1a">0.24</text>
<rect x="384" y="160" width="94" height="52" fill="#edf3f8"/>
<text x="431" y="191" text-anchor="middle" fill="#1a1a1a">0.04</text>
<rect x="96" y="214" width="94" height="52" fill="#3473a2"/>
<text x="143" y="245" text-anchor="middle" fill="#ffffff">0.41</text>
<rect x="192" y="214" width="94" height="52" fill="#457faa"/>
<text x="239" y="245" text-anchor="middle" fill="#ffffff">0.37</text>
<rect x="288" y="214" width="94" height="52" fill="#8cb0cb"/>
<text x="335" y="245" text-anchor="middle" fill="#1a1a1a">0.23</text>
<rect x="384" y="214" width="94" height="52" fill="#edf4f9"/>
<text x="431" y="245" text-anchor="middle" fill="#1a1a1a">0.04</text>
<text x="143" y="44" text-anchor="middle">low 0.1</text>
<text x="239" y="44" text-anchor="middle">low 0.3</text>
<text x="335" y="44" text-anchor="middle">low 0.5</text>
<text x="431" y="44" text-anchor="middle">low 0.7</text>
<text x="88" y="83" text-anchor="end">bias 0.0</text>
<text x="88" y="137" text-anchor="end">bias 0.2</text>
<text x="88" y="191" text-anchor="end">bias 0.4</text>
<text x="88" y="245" text-anchor="end">bias 0.6</text>
<text x="288" y="316" text-anchor="middle">capability floor (lower is wider spread)</text>
<text x="20" y="160" text-anchor="middle" transform="rotate(-90 20 160)">overconfidence bias</text>
</svg>