<svg xmlns="http://www.w3.org/2000/svg" width="820" height="440" viewBox="0 0 820 440" font-family="sans-serif" font-size="13">
<rect width="820" height="440" fill="white"/>
<text x="410" y="22" text-anchor="middle" font-size="16">Coordination dollar cost vs agent count (standard tier)</text>
<line x1="74" y1="376.0" x2="560" y2="376.0" stroke="#e8e8e8"/>
<text x="66" y="380.0" text-anchor="end">0.06</text>
<line x1="74" y1="292.0" x2="560" y2="292.0" stroke="#e8e8e8"/>
<text x="66" y="296.0" text-anchor="end">2.29</text>
<line x1="74" y1="208.0" x2="560" y2="208.0" stroke="#e8e8e8"/>
<text x="66" y="212.0" text-anchor="end">91.07</text>
<line x1="74" y1="124.0" x2="560" y2="124.0" stroke="#e8e8e8"/>
<text x="66" y="128.0" text-anchor="end">3,621</text>
<line x1="74" y1="40.0" x2="560" y2="40.0" stroke="#e8e8e8"/>
<text x="66" y="44.0" text-anchor="end">144,000</text>
<line x1="74.0" y1="376" x2="74.0" y2="381" stroke="#333"/>
<text x="74.0" y="394" text-anchor="middle">50.00</text>
<line x1="195.5" y1="376" x2="195.5" y2="381" stroke="#333"/>
<text x="195.5" y="394" text-anchor="middle">188.03</text>
<line x1="317.0" y1="376" x2="317.0" y2="381" stroke="#333"/>
<text x="317.0" y="394" text-anchor="middle">707.11</text>
<line x1="438.5" y1="376" x2="438.5" y2="381" stroke="#333"/>
<text x="438.5" y="394" text-anchor="middle">2,659</text>
<line x1="560.0" y1="376" x2="560.0" y2="381" stroke="#333"/>
<text x="560.0" y="394" text-anchor="middle">10,000</text>
<line x1="74" y1="376" x2="560" y2="376" stroke="#333"/>
<line x1="74" y1="376" x2="74" y2="40" stroke="#333"/>
<text x="317" y="424" text-anchor="middle">agents (log scale)</text>
<text x="18" y="208" text-anchor="middle" transform="rotate(-90 18 208)">USD per allocation round (log scale)</text>
<path d="M74.0 281.7 L137.6 250.1 L201.2 218.4 L285.2 176.7 L348.8 145.0 L412.4 113.4 L496.4 71.6 L560.0 40.0" fill="none" stroke="#2f6f9f" stroke-width="2.5"/>
<circle cx="74.0" cy="281.7" r="3" fill="#2f6f9f"/>
<circle cx="137.6" cy="250.1" r="3" fill="#2f6f9f"/>
<circle cx="201.2" cy="218.4" r="3" fill="#2f6f9f"/>
<circle cx="285.2" cy="176.7" r="3" fill="#2f6f9f"/>
<circle cx="348.8" cy="145.0" r="3" fill="#2f6f9f"/>
<circle cx="412.4" cy="113.4" r="3" fill="#2f6f9f"/>
<circle cx="496.4" cy="71.6" r="3" fill="#2f6f9f"/>
<circle cx="560.0" cy="40.0" r="3" fill="#2f6f9f"/>
<rect x="576" y="46" width="14" height="14" fill="#2f6f9f"/>
<text x="594" y="58">central (one node, N*M)</text>
<path d="M74.0 376.0 L137.6 376.0 L201.2 376.0 L285.2 376.0 L348.8 376.0 L412.4 376.0 L496.4 376.0 L560.0 376.0" fill="none" stroke="#c25a3d" stroke-width="2.5"/>
<circle cx="74.0" cy="376.0" r="3" fill="#c25a3d"/>
<circle cx="137.6" cy="376.0" r="3" fill="#c25a3d"/>
<circle cx="201.2" cy="376.0" r="3" fill="#c25a3d"/>
<circle cx="285.2" cy="376.0" r="3" fill="#c25a3d"/>
<circle cx="348.8" cy="376.0" r="3" fill="#c25a3d"/>
<circle cx="412.4" cy="376.0" r="3" fill="#c25a3d"/>
<circle cx="496.4" cy="376.0" r="3" fill="#c25a3d"/>
<circle cx="560.0" cy="376.0" r="3" fill="#c25a3d"/>
<rect x="576" y="68" width="14" height="14" fill="#c25a3d"/>
<text x="594" y="80">decentralised (busiest node)</text>
</svg>