<svg xmlns="http://www.w3.org/2000/svg" width="720" height="440" viewBox="0 0 720 440" font-family="sans-serif" font-size="13">
<rect width="720" height="440" fill="white"/>
<text x="360" y="22" text-anchor="middle" font-size="16">Coordination dollar cost vs agent count (standard tier)</text>
<line x1="70" y1="380" x2="560" y2="380" stroke="#333"/>
<line x1="70" y1="380" x2="70" y2="40" stroke="#333"/>
<text x="315" y="422" text-anchor="middle">agents (log scale)</text>
<text x="18" y="210" text-anchor="middle" transform="rotate(-90 18 210)">USD per allocation round (log scale)</text>
<path d="M70.0 284.6 L134.1 252.6 L198.2 220.6 L282.9 178.3 L347.1 146.3 L411.2 114.3 L495.9 72.0 L560.0 40.0" fill="none" stroke="#2f6f9f" stroke-width="2.5"/>
<circle cx="70.0" cy="284.6" r="3" fill="#2f6f9f"/>
<circle cx="134.1" cy="252.6" r="3" fill="#2f6f9f"/>
<circle cx="198.2" cy="220.6" r="3" fill="#2f6f9f"/>
<circle cx="282.9" cy="178.3" r="3" fill="#2f6f9f"/>
<circle cx="347.1" cy="146.3" r="3" fill="#2f6f9f"/>
<circle cx="411.2" cy="114.3" r="3" fill="#2f6f9f"/>
<circle cx="495.9" cy="72.0" r="3" fill="#2f6f9f"/>
<circle cx="560.0" cy="40.0" r="3" fill="#2f6f9f"/>
<rect x="576" y="46" width="14" height="14" fill="#2f6f9f"/>
<text x="594" y="58">central (one node, N*M)</text>
<path d="M70.0 380.0 L134.1 380.0 L198.2 380.0 L282.9 380.0 L347.1 380.0 L411.2 380.0 L495.9 380.0 L560.0 380.0" fill="none" stroke="#c25a3d" stroke-width="2.5"/>
<circle cx="70.0" cy="380.0" r="3" fill="#c25a3d"/>
<circle cx="134.1" cy="380.0" r="3" fill="#c25a3d"/>
<circle cx="198.2" cy="380.0" r="3" fill="#c25a3d"/>
<circle cx="282.9" cy="380.0" r="3" fill="#c25a3d"/>
<circle cx="347.1" cy="380.0" r="3" fill="#c25a3d"/>
<circle cx="411.2" cy="380.0" r="3" fill="#c25a3d"/>
<circle cx="495.9" cy="380.0" r="3" fill="#c25a3d"/>
<circle cx="560.0" cy="380.0" r="3" fill="#c25a3d"/>
<rect x="576" y="68" width="14" height="14" fill="#c25a3d"/>
<text x="594" y="80">decentralised (busiest node)</text>
<text x="70" y="398" text-anchor="middle">50</text>
<text x="560" y="398" text-anchor="middle">1e+04</text>
<text x="62" y="380" text-anchor="end">0.06</text>
<text x="62" y="50" text-anchor="end">1.4e+05</text>
</svg>