<svg xmlns="http://www.w3.org/2000/svg" width="720" height="440" viewBox="0 0 720 440" font-family="sans-serif" font-size="13">
<rect width="720" height="440" fill="white"/>
<text x="360" y="22" text-anchor="middle" font-size="16">Match quality vs heterogeneity</text>
<line x1="74" y1="376.0" x2="560" y2="376.0" stroke="#e8e8e8"/>
<text x="66" y="380.0" text-anchor="end">0</text>
<line x1="74" y1="292.0" x2="560" y2="292.0" stroke="#e8e8e8"/>
<text x="66" y="296.0" text-anchor="end">0.24</text>
<line x1="74" y1="208.0" x2="560" y2="208.0" stroke="#e8e8e8"/>
<text x="66" y="212.0" text-anchor="end">0.47</text>
<line x1="74" y1="124.0" x2="560" y2="124.0" stroke="#e8e8e8"/>
<text x="66" y="128.0" text-anchor="end">0.71</text>
<line x1="74" y1="40.0" x2="560" y2="40.0" stroke="#e8e8e8"/>
<text x="66" y="44.0" text-anchor="end">0.94</text>
<line x1="74.0" y1="376" x2="74.0" y2="381" stroke="#333"/>
<text x="74.0" y="394" text-anchor="middle">0</text>
<line x1="195.5" y1="376" x2="195.5" y2="381" stroke="#333"/>
<text x="195.5" y="394" text-anchor="middle">0.25</text>
<line x1="317.0" y1="376" x2="317.0" y2="381" stroke="#333"/>
<text x="317.0" y="394" text-anchor="middle">0.50</text>
<line x1="438.5" y1="376" x2="438.5" y2="381" stroke="#333"/>
<text x="438.5" y="394" text-anchor="middle">0.75</text>
<line x1="560.0" y1="376" x2="560.0" y2="381" stroke="#333"/>
<text x="560.0" y="394" text-anchor="middle">1</text>
<line x1="74" y1="376" x2="560" y2="376" stroke="#333"/>
<line x1="74" y1="376" x2="74" y2="40" stroke="#333"/>
<text x="317" y="424" text-anchor="middle">agent heterogeneity</text>
<text x="18" y="208" text-anchor="middle" transform="rotate(-90 18 208)">mean quality</text>
<path d="M74.0 89.2 L195.5 83.2 L317.0 68.2 L438.5 63.4 L560.0 62.8" fill="none" stroke="#2f6f9f" stroke-width="2.5"/>
<circle cx="74.0" cy="89.2" r="3" fill="#2f6f9f"/>
<circle cx="195.5" cy="83.2" r="3" fill="#2f6f9f"/>
<circle cx="317.0" cy="68.2" r="3" fill="#2f6f9f"/>
<circle cx="438.5" cy="63.4" r="3" fill="#2f6f9f"/>
<circle cx="560.0" cy="62.8" r="3" fill="#2f6f9f"/>
<rect x="576" y="46" width="14" height="14" fill="#2f6f9f"/>
<text x="594" y="58">cta</text>
<path d="M74.0 78.7 L195.5 66.1 L317.0 47.3 L438.5 41.1 L560.0 40.0" fill="none" stroke="#c25a3d" stroke-width="2.5"/>
<circle cx="74.0" cy="78.7" r="3" fill="#c25a3d"/>
<circle cx="195.5" cy="66.1" r="3" fill="#c25a3d"/>
<circle cx="317.0" cy="47.3" r="3" fill="#c25a3d"/>
<circle cx="438.5" cy="41.1" r="3" fill="#c25a3d"/>
<circle cx="560.0" cy="40.0" r="3" fill="#c25a3d"/>
<rect x="576" y="68" width="14" height="14" fill="#c25a3d"/>
<text x="594" y="80">central_best</text>
</svg>