<svg xmlns="http://www.w3.org/2000/svg" width="720" height="440" viewBox="0 0 720 440" font-family="sans-serif" font-size="13">
<rect width="720" height="440" fill="white"/>
<text x="360" y="22" text-anchor="middle" font-size="16">Match quality vs heterogeneity</text>
<line x1="70" y1="380" x2="560" y2="380" stroke="#333"/>
<line x1="70" y1="380" x2="70" y2="40" stroke="#333"/>
<text x="315" y="422" text-anchor="middle">agent heterogeneity</text>
<text x="18" y="210" text-anchor="middle" transform="rotate(-90 18 210)">mean quality</text>
<path d="M70.0 64.3 L315.0 46.2 L560.0 40.0" fill="none" stroke="#2f6f9f" stroke-width="2.5"/>
<circle cx="70.0" cy="64.3" r="3" fill="#2f6f9f"/>
<circle cx="315.0" cy="46.2" r="3" fill="#2f6f9f"/>
<circle cx="560.0" cy="40.0" r="3" fill="#2f6f9f"/>
<rect x="576" y="46" width="14" height="14" fill="#2f6f9f"/>
<text x="594" y="58">cta</text>
<path d="M70.0 123.4 L315.0 104.8 L560.0 95.1" fill="none" stroke="#c25a3d" stroke-width="2.5"/>
<circle cx="70.0" cy="123.4" r="3" fill="#c25a3d"/>
<circle cx="315.0" cy="104.8" r="3" fill="#c25a3d"/>
<circle cx="560.0" cy="95.1" r="3" fill="#c25a3d"/>
<rect x="576" y="68" width="14" height="14" fill="#c25a3d"/>
<text x="594" y="80">central_optimal</text>
<text x="70" y="398" text-anchor="middle">0</text>
<text x="560" y="398" text-anchor="middle">1</text>
<text x="62" y="380" text-anchor="end">0</text>
<text x="62" y="50" text-anchor="end">0.89</text>
</svg>