<svg xmlns="http://www.w3.org/2000/svg" width="720" height="440" viewBox="0 0 720 440" font-family="sans-serif" font-size="13">
<rect width="720" height="440" fill="white"/>
<text x="360" y="22" text-anchor="middle" font-size="16">Capability ladder: task completion by model and wrapper</text>
<line x1="74" y1="376.0" x2="560" y2="376.0" stroke="#e8e8e8"/>
<text x="66" y="380.0" text-anchor="end">0</text>
<line x1="74" y1="292.0" x2="560" y2="292.0" stroke="#e8e8e8"/>
<text x="66" y="296.0" text-anchor="end">0.25</text>
<line x1="74" y1="208.0" x2="560" y2="208.0" stroke="#e8e8e8"/>
<text x="66" y="212.0" text-anchor="end">0.50</text>
<line x1="74" y1="124.0" x2="560" y2="124.0" stroke="#e8e8e8"/>
<text x="66" y="128.0" text-anchor="end">0.75</text>
<line x1="74" y1="40.0" x2="560" y2="40.0" stroke="#e8e8e8"/>
<text x="66" y="44.0" text-anchor="end">1</text>
<line x1="74" y1="376.0" x2="560" y2="376.0" stroke="#333"/>
<line x1="74" y1="376" x2="74" y2="40" stroke="#333"/>
<text x="18" y="208" text-anchor="middle" transform="rotate(-90 18 208)">completion (fraction of tasks fully passed)</text>
<rect x="90.2" y="56.8" width="58.3" height="319.2" fill="#2f6f9f"/>
<text x="119.4" y="52.8" text-anchor="middle" font-size="11">0.95</text>
<rect x="155.0" y="44.7" width="58.3" height="331.3" fill="#c25a3d"/>
<text x="184.2" y="40.7" text-anchor="middle" font-size="11">0.99</text>
<text x="155" y="394" text-anchor="middle">Haiku</text>
<rect x="252.2" y="44.2" width="58.3" height="331.8" fill="#2f6f9f"/>
<text x="281.4" y="40.2" text-anchor="middle" font-size="11">0.99</text>
<rect x="317.0" y="40.0" width="58.3" height="336.0" fill="#c25a3d"/>
<text x="346.2" y="36.0" text-anchor="middle" font-size="11">1</text>
<text x="317" y="394" text-anchor="middle">Sonnet</text>
<rect x="414.2" y="40.0" width="58.3" height="336.0" fill="#2f6f9f"/>
<text x="443.4" y="36.0" text-anchor="middle" font-size="11">1</text>
<rect x="479.0" y="40.0" width="58.3" height="336.0" fill="#c25a3d"/>
<text x="508.2" y="36.0" text-anchor="middle" font-size="11">1</text>
<text x="479" y="394" text-anchor="middle">Opus</text>
<rect x="576" y="46" width="14" height="14" fill="#2f6f9f"/>
<text x="594" y="58">bare prompt</text>
<rect x="576" y="68" width="14" height="14" fill="#c25a3d"/>
<text x="594" y="80">task-wrapped</text>
</svg>