<svg xmlns="http://www.w3.org/2000/svg" width="820" height="440" viewBox="0 0 820 440" font-family="sans-serif" font-size="13">
<rect width="820" height="440" fill="white"/>
<text x="410" y="22" text-anchor="middle" font-size="16">Task-wrapper lift: completion gained from wrapping the task</text>
<line x1="74" y1="376.0" x2="560" y2="376.0" stroke="#e8e8e8"/>
<text x="66" y="380.0" text-anchor="end">0</text>
<line x1="74" y1="292.0" x2="560" y2="292.0" stroke="#e8e8e8"/>
<text x="66" y="296.0" text-anchor="end">0.009</text>
<line x1="74" y1="208.0" x2="560" y2="208.0" stroke="#e8e8e8"/>
<text x="66" y="212.0" text-anchor="end">0.02</text>
<line x1="74" y1="124.0" x2="560" y2="124.0" stroke="#e8e8e8"/>
<text x="66" y="128.0" text-anchor="end">0.03</text>
<line x1="74" y1="40.0" x2="560" y2="40.0" stroke="#e8e8e8"/>
<text x="66" y="44.0" text-anchor="end">0.04</text>
<line x1="74" y1="376.0" x2="560" y2="376.0" stroke="#333"/>
<line x1="74" y1="376" x2="74" y2="40" stroke="#333"/>
<text x="18" y="208" text-anchor="middle" transform="rotate(-90 18 208)">wrapped minus bare completion</text>
<rect x="90.2" y="40.0" width="116.6" height="336.0" fill="#2f6f9f"/>
<text x="148.5" y="36.0" text-anchor="middle" font-size="11">0.04</text>
<text x="155" y="394" text-anchor="middle">Haiku</text>
<rect x="252.2" y="259.7" width="116.6" height="116.3" fill="#2f6f9f"/>
<text x="310.5" y="255.7" text-anchor="middle" font-size="11">0.01</text>
<text x="317" y="394" text-anchor="middle">Sonnet</text>
<rect x="414.2" y="376.0" width="116.6" height="0.0" fill="#2f6f9f"/>
<text x="472.5" y="372.0" text-anchor="middle" font-size="11">0</text>
<text x="479" y="394" text-anchor="middle">Opus</text>
<rect x="576" y="46" width="14" height="14" fill="#2f6f9f"/>
<text x="594" y="58">completion lift</text>
</svg>