<svg xmlns="http://www.w3.org/2000/svg" width="720" height="440" viewBox="0 0 720 440" font-family="sans-serif" font-size="13">
<rect width="720" height="440" fill="white"/>
<text x="360" y="22" text-anchor="middle" font-size="16">Capability ladder: task completion by model and wrapper</text>
<line x1="70" y1="380.0" x2="560" y2="380.0" stroke="#333"/>
<line x1="70" y1="380" x2="70" y2="40" stroke="#333"/>
<text x="18" y="210" text-anchor="middle" transform="rotate(-90 18 210)">completion (fraction of tasks fully passed)</text>
<rect x="86.3" y="65.5" width="58.8" height="314.5" fill="#2f6f9f"/>
<rect x="151.7" y="40.0" width="58.8" height="340.0" fill="#c25a3d"/>
<text x="152" y="398" text-anchor="middle">Haiku</text>
<rect x="249.7" y="40.0" width="58.8" height="340.0" fill="#2f6f9f"/>
<rect x="315.0" y="40.0" width="58.8" height="340.0" fill="#c25a3d"/>
<text x="315" y="398" text-anchor="middle">Sonnet</text>
<rect x="413.0" y="40.0" width="58.8" height="340.0" fill="#2f6f9f"/>
<rect x="478.3" y="40.0" width="58.8" height="340.0" fill="#c25a3d"/>
<text x="478" y="398" text-anchor="middle">Opus</text>
<rect x="576" y="46" width="14" height="14" fill="#2f6f9f"/>
<text x="594" y="58">bare prompt</text>
<rect x="576" y="68" width="14" height="14" fill="#c25a3d"/>
<text x="594" y="80">task-wrapped</text>
</svg>