<svg xmlns="http://www.w3.org/2000/svg" width="720" height="440" viewBox="0 0 720 440" font-family="sans-serif" font-size="13">
<rect width="720" height="440" fill="white"/>
<text x="360" y="22" text-anchor="middle" font-size="16">Agent wrapper: completion against cost (routing vs single model)</text>
<line x1="70" y1="380" x2="560" y2="380" stroke="#333"/>
<line x1="70" y1="380" x2="70" y2="40" stroke="#333"/>
<text x="315" y="422" text-anchor="middle">USD per task x 1e6 (representative tiers)</text>
<text x="18" y="210" text-anchor="middle" transform="rotate(-90 18 210)">completion</text>
<path d="M70.0 40.0" fill="none" stroke="#2f6f9f" stroke-width="2.5"/>
<circle cx="70.0" cy="40.0" r="3" fill="#2f6f9f"/>
<rect x="576" y="46" width="14" height="14" fill="#2f6f9f"/>
<text x="594" y="58">Haiku</text>
<path d="M153.0 40.0" fill="none" stroke="#c25a3d" stroke-width="2.5"/>
<circle cx="153.0" cy="40.0" r="3" fill="#c25a3d"/>
<rect x="576" y="68" width="14" height="14" fill="#c25a3d"/>
<text x="594" y="80">Sonnet</text>
<path d="M560.0 40.0" fill="none" stroke="#4c9a6a" stroke-width="2.5"/>
<circle cx="560.0" cy="40.0" r="3" fill="#4c9a6a"/>
<rect x="576" y="90" width="14" height="14" fill="#4c9a6a"/>
<text x="594" y="102">Opus</text>
<path d="M70.0 40.0" fill="none" stroke="#8a6fb0" stroke-width="2.5"/>
<circle cx="70.0" cy="40.0" r="3" fill="#8a6fb0"/>
<rect x="576" y="112" width="14" height="14" fill="#8a6fb0"/>
<text x="594" y="124">Routed (agent wrapper)</text>
<text x="70" y="398" text-anchor="middle">3e+03</text>
<text x="560" y="398" text-anchor="middle">1.4e+05</text>
<text x="62" y="380" text-anchor="end">0</text>
<text x="62" y="50" text-anchor="end">1</text>
</svg>