<svg xmlns="http://www.w3.org/2000/svg" width="720" height="440" viewBox="0 0 720 440" font-family="sans-serif" font-size="13">
<rect width="720" height="440" fill="white"/>
<text x="360" y="22" text-anchor="middle" font-size="16">Self-improving allocation: completion climbs as the record accumulates</text>
<line x1="74" y1="376.0" x2="560" y2="376.0" stroke="#e8e8e8"/>
<text x="66" y="380.0" text-anchor="end">0</text>
<line x1="74" y1="292.0" x2="560" y2="292.0" stroke="#e8e8e8"/>
<text x="66" y="296.0" text-anchor="end">0.21</text>
<line x1="74" y1="208.0" x2="560" y2="208.0" stroke="#e8e8e8"/>
<text x="66" y="212.0" text-anchor="end">0.42</text>
<line x1="74" y1="124.0" x2="560" y2="124.0" stroke="#e8e8e8"/>
<text x="66" y="128.0" text-anchor="end">0.63</text>
<line x1="74" y1="40.0" x2="560" y2="40.0" stroke="#e8e8e8"/>
<text x="66" y="44.0" text-anchor="end">0.84</text>
<line x1="74.0" y1="376" x2="74.0" y2="381" stroke="#333"/>
<text x="74.0" y="394" text-anchor="middle">0</text>
<line x1="195.5" y1="376" x2="195.5" y2="381" stroke="#333"/>
<text x="195.5" y="394" text-anchor="middle">2.75</text>
<line x1="317.0" y1="376" x2="317.0" y2="381" stroke="#333"/>
<text x="317.0" y="394" text-anchor="middle">5.50</text>
<line x1="438.5" y1="376" x2="438.5" y2="381" stroke="#333"/>
<text x="438.5" y="394" text-anchor="middle">8.25</text>
<line x1="560.0" y1="376" x2="560.0" y2="381" stroke="#333"/>
<text x="560.0" y="394" text-anchor="middle">11</text>
<line x1="74" y1="376" x2="560" y2="376" stroke="#333"/>
<line x1="74" y1="376" x2="74" y2="40" stroke="#333"/>
<text x="317" y="424" text-anchor="middle">round</text>
<text x="18" y="208" text-anchor="middle" transform="rotate(-90 18 208)">task completion rate</text>
<path d="M74.0 233.5 L118.2 137.0 L162.4 97.9 L206.5 72.6 L250.7 58.9 L294.9 60.9 L339.1 52.2 L383.3 54.4 L427.5 42.0 L471.6 45.0 L515.8 45.5 L560.0 40.0" fill="none" stroke="#2f6f9f" stroke-width="2.5"/>
<circle cx="74.0" cy="233.5" r="3" fill="#2f6f9f"/>
<circle cx="118.2" cy="137.0" r="3" fill="#2f6f9f"/>
<circle cx="162.4" cy="97.9" r="3" fill="#2f6f9f"/>
<circle cx="206.5" cy="72.6" r="3" fill="#2f6f9f"/>
<circle cx="250.7" cy="58.9" r="3" fill="#2f6f9f"/>
<circle cx="294.9" cy="60.9" r="3" fill="#2f6f9f"/>
<circle cx="339.1" cy="52.2" r="3" fill="#2f6f9f"/>
<circle cx="383.3" cy="54.4" r="3" fill="#2f6f9f"/>
<circle cx="427.5" cy="42.0" r="3" fill="#2f6f9f"/>
<circle cx="471.6" cy="45.0" r="3" fill="#2f6f9f"/>
<circle cx="515.8" cy="45.5" r="3" fill="#2f6f9f"/>
<circle cx="560.0" cy="40.0" r="3" fill="#2f6f9f"/>
<rect x="576" y="46" width="14" height="14" fill="#2f6f9f"/>
<text x="594" y="58">reliability (persistent record)</text>
<path d="M74.0 233.5 L118.2 238.7 L162.4 247.7 L206.5 245.9 L250.7 236.2 L294.9 239.7 L339.1 244.9 L383.3 243.4 L427.5 247.7 L471.6 242.4 L515.8 245.2 L560.0 238.5" fill="none" stroke="#c25a3d" stroke-width="2.5"/>
<circle cx="74.0" cy="233.5" r="3" fill="#c25a3d"/>
<circle cx="118.2" cy="238.7" r="3" fill="#c25a3d"/>
<circle cx="162.4" cy="247.7" r="3" fill="#c25a3d"/>
<circle cx="206.5" cy="245.9" r="3" fill="#c25a3d"/>
<circle cx="250.7" cy="236.2" r="3" fill="#c25a3d"/>
<circle cx="294.9" cy="239.7" r="3" fill="#c25a3d"/>
<circle cx="339.1" cy="244.9" r="3" fill="#c25a3d"/>
<circle cx="383.3" cy="243.4" r="3" fill="#c25a3d"/>
<circle cx="427.5" cy="247.7" r="3" fill="#c25a3d"/>
<circle cx="471.6" cy="242.4" r="3" fill="#c25a3d"/>
<circle cx="515.8" cy="245.2" r="3" fill="#c25a3d"/>
<circle cx="560.0" cy="238.5" r="3" fill="#c25a3d"/>
<rect x="576" y="68" width="14" height="14" fill="#c25a3d"/>
<text x="594" y="80">raw self-report (no memory)</text>
<path d="M74.0 66.6 L118.2 76.3 L162.4 76.3 L206.5 71.3 L250.7 69.8 L294.9 83.5 L339.1 76.3 L383.3 77.6 L427.5 74.6 L471.6 74.8 L515.8 77.8 L560.0 70.6" fill="none" stroke="#4c9a6a" stroke-width="2.5"/>
<circle cx="74.0" cy="66.6" r="3" fill="#4c9a6a"/>
<circle cx="118.2" cy="76.3" r="3" fill="#4c9a6a"/>
<circle cx="162.4" cy="76.3" r="3" fill="#4c9a6a"/>
<circle cx="206.5" cy="71.3" r="3" fill="#4c9a6a"/>
<circle cx="250.7" cy="69.8" r="3" fill="#4c9a6a"/>
<circle cx="294.9" cy="83.5" r="3" fill="#4c9a6a"/>
<circle cx="339.1" cy="76.3" r="3" fill="#4c9a6a"/>
<circle cx="383.3" cy="77.6" r="3" fill="#4c9a6a"/>
<circle cx="427.5" cy="74.6" r="3" fill="#4c9a6a"/>
<circle cx="471.6" cy="74.8" r="3" fill="#4c9a6a"/>
<circle cx="515.8" cy="77.8" r="3" fill="#4c9a6a"/>
<circle cx="560.0" cy="70.6" r="3" fill="#4c9a6a"/>
<rect x="576" y="90" width="14" height="14" fill="#4c9a6a"/>
<text x="594" y="102">full-information oracle</text>
</svg>