<svg xmlns="http://www.w3.org/2000/svg" width="720" height="440" viewBox="0 0 720 440" font-family="sans-serif" font-size="13">
<rect width="720" height="440" fill="white"/>
<text x="360" y="22" text-anchor="middle" font-size="16">Fleet calibration: predicted vs realised success</text>
<line x1="70" y1="380" x2="560" y2="380" stroke="#333"/>
<line x1="70" y1="380" x2="70" y2="40" stroke="#333"/>
<text x="315" y="422" text-anchor="middle">mean predicted success</text>
<text x="18" y="210" text-anchor="middle" transform="rotate(-90 18 210)">realised success rate</text>
<path d="M344.5 167.5 L395.7 106.3 L445.1 124.2 L487.9 112.3 L541.5 97.6" fill="none" stroke="#2f6f9f" stroke-width="2.5"/>
<circle cx="344.5" cy="167.5" r="3" fill="#2f6f9f"/>
<circle cx="395.7" cy="106.3" r="3" fill="#2f6f9f"/>
<circle cx="445.1" cy="124.2" r="3" fill="#2f6f9f"/>
<circle cx="487.9" cy="112.3" r="3" fill="#2f6f9f"/>
<circle cx="541.5" cy="97.6" r="3" fill="#2f6f9f"/>
<rect x="576" y="46" width="14" height="14" fill="#2f6f9f"/>
<text x="594" y="58">raw self-report</text>
<path d="M341.8 153.3 L397.0 71.6 L444.0 88.1 L486.6 104.4 L543.3 90.1" fill="none" stroke="#c25a3d" stroke-width="2.5"/>
<circle cx="341.8" cy="153.3" r="3" fill="#c25a3d"/>
<circle cx="397.0" cy="71.6" r="3" fill="#c25a3d"/>
<circle cx="444.0" cy="88.1" r="3" fill="#c25a3d"/>
<circle cx="486.6" cy="104.4" r="3" fill="#c25a3d"/>
<circle cx="543.3" cy="90.1" r="3" fill="#c25a3d"/>
<rect x="576" y="68" width="14" height="14" fill="#c25a3d"/>
<text x="594" y="80">reliability correction</text>
<path d="M70.0 380.0 L560.0 40.0" fill="none" stroke="#4c9a6a" stroke-width="2.5"/>
<circle cx="70.0" cy="380.0" r="3" fill="#4c9a6a"/>
<circle cx="560.0" cy="40.0" r="3" fill="#4c9a6a"/>
<rect x="576" y="90" width="14" height="14" fill="#4c9a6a"/>
<text x="594" y="102">perfect calibration</text>
<text x="70" y="398" text-anchor="middle">0</text>
<text x="560" y="398" text-anchor="middle">1</text>
<text x="62" y="380" text-anchor="end">0</text>
<text x="62" y="50" text-anchor="end">1</text>
</svg>