<svg xmlns="http://www.w3.org/2000/svg" width="720" height="440" viewBox="0 0 720 440" font-family="sans-serif" font-size="13">
<rect width="720" height="440" fill="white"/>
<text x="360" y="22" text-anchor="middle" font-size="16">Live pilot (hard tier): 6 agents, 2 model families, 114 attempts</text>
<line x1="70" y1="380" x2="560" y2="380" stroke="#333"/>
<line x1="70" y1="380" x2="70" y2="40" stroke="#333"/>
<text x="315" y="422" text-anchor="middle">stated confidence</text>
<text x="18" y="210" text-anchor="middle" transform="rotate(-90 18 210)">realised pass rate</text>
<path d="M437.5 40.0 L491.6 40.0 L532.0 40.0" fill="none" stroke="#2f6f9f" stroke-width="2.5"/>
<circle cx="437.5" cy="40.0" r="3" fill="#2f6f9f"/>
<circle cx="491.6" cy="40.0" r="3" fill="#2f6f9f"/>
<circle cx="532.0" cy="40.0" r="3" fill="#2f6f9f"/>
<rect x="576" y="46" width="14" height="14" fill="#2f6f9f"/>
<text x="594" y="58">real Claude agent</text>
<path d="M70.0 380.0 L560.0 40.0" fill="none" stroke="#c25a3d" stroke-width="2.5"/>
<circle cx="70.0" cy="380.0" r="3" fill="#c25a3d"/>
<circle cx="560.0" cy="40.0" r="3" fill="#c25a3d"/>
<rect x="576" y="68" width="14" height="14" fill="#c25a3d"/>
<text x="594" y="80">perfect calibration</text>
<text x="70" y="398" text-anchor="middle">0</text>
<text x="560" y="398" text-anchor="middle">1</text>
<text x="62" y="380" text-anchor="end">0</text>
<text x="62" y="50" text-anchor="end">1</text>
</svg>