<svg xmlns="http://www.w3.org/2000/svg" width="720" height="440" viewBox="0 0 720 440" font-family="sans-serif" font-size="13">
<rect width="720" height="440" fill="white"/>
<text x="360" y="22" text-anchor="middle" font-size="16">Key outcomes across generator families</text>
<line x1="74" y1="376.0" x2="560" y2="376.0" stroke="#e8e8e8"/>
<text x="66" y="380.0" text-anchor="end">0</text>
<line x1="74" y1="292.0" x2="560" y2="292.0" stroke="#e8e8e8"/>
<text x="66" y="296.0" text-anchor="end">0.23</text>
<line x1="74" y1="208.0" x2="560" y2="208.0" stroke="#e8e8e8"/>
<text x="66" y="212.0" text-anchor="end">0.45</text>
<line x1="74" y1="124.0" x2="560" y2="124.0" stroke="#e8e8e8"/>
<text x="66" y="128.0" text-anchor="end">0.68</text>
<line x1="74" y1="40.0" x2="560" y2="40.0" stroke="#e8e8e8"/>
<text x="66" y="44.0" text-anchor="end">0.91</text>
<line x1="74" y1="376.0" x2="560" y2="376.0" stroke="#333"/>
<line x1="74" y1="376" x2="74" y2="40" stroke="#333"/>
<text x="18" y="208" text-anchor="middle" transform="rotate(-90 18 208)">value</text>
<rect x="90.2" y="50.7" width="58.3" height="325.3" fill="#2f6f9f"/>
<text x="119.4" y="46.7" text-anchor="middle" font-size="11">0.88</text>
<rect x="155.0" y="56.7" width="58.3" height="319.3" fill="#c25a3d"/>
<text x="184.2" y="52.7" text-anchor="middle" font-size="11">0.86</text>
<text x="155" y="394" text-anchor="middle">CTA quality</text>
<rect x="252.2" y="232.1" width="58.3" height="143.9" fill="#2f6f9f"/>
<text x="281.4" y="228.1" text-anchor="middle" font-size="11">0.39</text>
<rect x="317.0" y="230.6" width="58.3" height="145.4" fill="#c25a3d"/>
<text x="346.2" y="226.6" text-anchor="middle" font-size="11">0.39</text>
<text x="317" y="394" text-anchor="middle">H8 recovery</text>
<rect x="414.2" y="41.5" width="58.3" height="334.5" fill="#2f6f9f"/>
<text x="443.4" y="37.5" text-anchor="middle" font-size="11">0.90</text>
<rect x="479.0" y="40.0" width="58.3" height="336.0" fill="#c25a3d"/>
<text x="508.2" y="36.0" text-anchor="middle" font-size="11">0.91</text>
<text x="479" y="394" text-anchor="middle">H4 reduction</text>
<rect x="576" y="46" width="14" height="14" fill="#2f6f9f"/>
<text x="594" y="58">domains</text>
<rect x="576" y="68" width="14" height="14" fill="#c25a3d"/>
<text x="594" y="80">latent</text>
</svg>