<svg xmlns="http://www.w3.org/2000/svg" width="720" height="440" viewBox="0 0 720 440" font-family="sans-serif" font-size="13">
<rect width="720" height="440" fill="white"/>
<text x="360" y="22" text-anchor="middle" font-size="16">Key outcomes across generator families</text>
<line x1="70" y1="380.0" x2="560" y2="380.0" stroke="#333"/>
<line x1="70" y1="380" x2="70" y2="40" stroke="#333"/>
<text x="18" y="210" text-anchor="middle" transform="rotate(-90 18 210)">value</text>
<rect x="86.3" y="53.0" width="58.8" height="327.0" fill="#2f6f9f"/>
<rect x="151.7" y="54.8" width="58.8" height="325.2" fill="#c25a3d"/>
<text x="152" y="398" text-anchor="middle">CTA quality</text>
<rect x="249.7" y="237.0" width="58.8" height="143.0" fill="#2f6f9f"/>
<rect x="315.0" y="211.5" width="58.8" height="168.5" fill="#c25a3d"/>
<text x="315" y="398" text-anchor="middle">H8 recovery</text>
<rect x="413.0" y="44.8" width="58.8" height="335.2" fill="#2f6f9f"/>
<rect x="478.3" y="40.0" width="58.8" height="340.0" fill="#c25a3d"/>
<text x="478" y="398" text-anchor="middle">H4 reduction</text>
<rect x="576" y="46" width="14" height="14" fill="#2f6f9f"/>
<text x="594" y="58">domains</text>
<rect x="576" y="68" width="14" height="14" fill="#c25a3d"/>
<text x="594" y="80">latent</text>
</svg>