<svg xmlns="http://www.w3.org/2000/svg" width="720" height="440" viewBox="0 0 720 440" font-family="sans-serif" font-size="13">
<rect width="720" height="440" fill="white"/>
<text x="360" y="22" text-anchor="middle" font-size="16">Sandbagging adversary: reputation gaming and the recency window</text>
<line x1="70" y1="380" x2="560" y2="380" stroke="#333"/>
<line x1="70" y1="380" x2="70" y2="40" stroke="#333"/>
<text x="315" y="422" text-anchor="middle">round (defects after the honest rounds)</text>
<text x="18" y="210" text-anchor="middle" transform="rotate(-90 18 210)">adversary share of won tasks</text>
<path d="M70.0 264.8 L124.4 218.6 L178.9 166.3 L233.3 140.8 L287.8 128.9 L342.2 115.6 L396.7 130.3 L451.1 194.7 L505.6 299.7 L560.0 380.0" fill="none" stroke="#2f6f9f" stroke-width="2.5"/>
<circle cx="70.0" cy="264.8" r="3" fill="#2f6f9f"/>
<circle cx="124.4" cy="218.6" r="3" fill="#2f6f9f"/>
<circle cx="178.9" cy="166.3" r="3" fill="#2f6f9f"/>
<circle cx="233.3" cy="140.8" r="3" fill="#2f6f9f"/>
<circle cx="287.8" cy="128.9" r="3" fill="#2f6f9f"/>
<circle cx="342.2" cy="115.6" r="3" fill="#2f6f9f"/>
<circle cx="396.7" cy="130.3" r="3" fill="#2f6f9f"/>
<circle cx="451.1" cy="194.7" r="3" fill="#2f6f9f"/>
<circle cx="505.6" cy="299.7" r="3" fill="#2f6f9f"/>
<circle cx="560.0" cy="380.0" r="3" fill="#2f6f9f"/>
<rect x="576" y="46" width="14" height="14" fill="#2f6f9f"/>
<text x="594" y="58">cumulative record</text>
<path d="M70.0 264.8 L124.4 230.0 L178.9 167.0 L233.3 108.8 L287.8 61.7 L342.2 40.0 L396.7 354.2 L451.1 323.2 L505.6 380.0 L560.0 364.0" fill="none" stroke="#c25a3d" stroke-width="2.5"/>
<circle cx="70.0" cy="264.8" r="3" fill="#c25a3d"/>
<circle cx="124.4" cy="230.0" r="3" fill="#c25a3d"/>
<circle cx="178.9" cy="167.0" r="3" fill="#c25a3d"/>
<circle cx="233.3" cy="108.8" r="3" fill="#c25a3d"/>
<circle cx="287.8" cy="61.7" r="3" fill="#c25a3d"/>
<circle cx="342.2" cy="40.0" r="3" fill="#c25a3d"/>
<circle cx="396.7" cy="354.2" r="3" fill="#c25a3d"/>
<circle cx="451.1" cy="323.2" r="3" fill="#c25a3d"/>
<circle cx="505.6" cy="380.0" r="3" fill="#c25a3d"/>
<circle cx="560.0" cy="364.0" r="3" fill="#c25a3d"/>
<rect x="576" y="68" width="14" height="14" fill="#c25a3d"/>
<text x="594" y="80">recency window</text>
<text x="70" y="398" text-anchor="middle">0</text>
<text x="560" y="398" text-anchor="middle">9</text>
<text x="62" y="380" text-anchor="end">0</text>
<text x="62" y="50" text-anchor="end">0.28</text>
</svg>