<svg xmlns="http://www.w3.org/2000/svg" width="720" height="440" viewBox="0 0 720 440" font-family="sans-serif" font-size="13">
<rect width="720" height="440" fill="white"/>
<text x="360" y="22" text-anchor="middle" font-size="16">Sandbagging adversary: reputation gaming and the recency window</text>
<line x1="74" y1="376.0" x2="560" y2="376.0" stroke="#e8e8e8"/>
<text x="66" y="380.0" text-anchor="end">0</text>
<line x1="74" y1="292.0" x2="560" y2="292.0" stroke="#e8e8e8"/>
<text x="66" y="296.0" text-anchor="end">0.07</text>
<line x1="74" y1="208.0" x2="560" y2="208.0" stroke="#e8e8e8"/>
<text x="66" y="212.0" text-anchor="end">0.14</text>
<line x1="74" y1="124.0" x2="560" y2="124.0" stroke="#e8e8e8"/>
<text x="66" y="128.0" text-anchor="end">0.21</text>
<line x1="74" y1="40.0" x2="560" y2="40.0" stroke="#e8e8e8"/>
<text x="66" y="44.0" text-anchor="end">0.28</text>
<line x1="74.0" y1="376" x2="74.0" y2="381" stroke="#333"/>
<text x="74.0" y="394" text-anchor="middle">0</text>
<line x1="195.5" y1="376" x2="195.5" y2="381" stroke="#333"/>
<text x="195.5" y="394" text-anchor="middle">2.25</text>
<line x1="317.0" y1="376" x2="317.0" y2="381" stroke="#333"/>
<text x="317.0" y="394" text-anchor="middle">4.50</text>
<line x1="438.5" y1="376" x2="438.5" y2="381" stroke="#333"/>
<text x="438.5" y="394" text-anchor="middle">6.75</text>
<line x1="560.0" y1="376" x2="560.0" y2="381" stroke="#333"/>
<text x="560.0" y="394" text-anchor="middle">9</text>
<line x1="74" y1="376" x2="560" y2="376" stroke="#333"/>
<line x1="74" y1="376" x2="74" y2="40" stroke="#333"/>
<text x="317" y="424" text-anchor="middle">round (defects after the honest rounds)</text>
<text x="18" y="208" text-anchor="middle" transform="rotate(-90 18 208)">adversary share of won tasks</text>
<path d="M74.0 262.2 L128.0 216.5 L182.0 164.8 L236.0 139.6 L290.0 127.9 L344.0 114.7 L398.0 129.2 L452.0 192.9 L506.0 296.6 L560.0 376.0" fill="none" stroke="#2f6f9f" stroke-width="2.5"/>
<circle cx="74.0" cy="262.2" r="3" fill="#2f6f9f"/>
<circle cx="128.0" cy="216.5" r="3" fill="#2f6f9f"/>
<circle cx="182.0" cy="164.8" r="3" fill="#2f6f9f"/>
<circle cx="236.0" cy="139.6" r="3" fill="#2f6f9f"/>
<circle cx="290.0" cy="127.9" r="3" fill="#2f6f9f"/>
<circle cx="344.0" cy="114.7" r="3" fill="#2f6f9f"/>
<circle cx="398.0" cy="129.2" r="3" fill="#2f6f9f"/>
<circle cx="452.0" cy="192.9" r="3" fill="#2f6f9f"/>
<circle cx="506.0" cy="296.6" r="3" fill="#2f6f9f"/>
<circle cx="560.0" cy="376.0" r="3" fill="#2f6f9f"/>
<rect x="576" y="46" width="14" height="14" fill="#2f6f9f"/>
<text x="594" y="58">cumulative record</text>
<path d="M74.0 262.2 L128.0 227.8 L182.0 165.6 L236.0 108.0 L290.0 61.4 L344.0 40.0 L398.0 350.5 L452.0 319.8 L506.0 376.0 L560.0 360.1" fill="none" stroke="#c25a3d" stroke-width="2.5"/>
<circle cx="74.0" cy="262.2" r="3" fill="#c25a3d"/>
<circle cx="128.0" cy="227.8" r="3" fill="#c25a3d"/>
<circle cx="182.0" cy="165.6" r="3" fill="#c25a3d"/>
<circle cx="236.0" cy="108.0" r="3" fill="#c25a3d"/>
<circle cx="290.0" cy="61.4" r="3" fill="#c25a3d"/>
<circle cx="344.0" cy="40.0" r="3" fill="#c25a3d"/>
<circle cx="398.0" cy="350.5" r="3" fill="#c25a3d"/>
<circle cx="452.0" cy="319.8" r="3" fill="#c25a3d"/>
<circle cx="506.0" cy="376.0" r="3" fill="#c25a3d"/>
<circle cx="560.0" cy="360.1" r="3" fill="#c25a3d"/>
<rect x="576" y="68" width="14" height="14" fill="#c25a3d"/>
<text x="594" y="80">recency window</text>
</svg>