<svg xmlns="http://www.w3.org/2000/svg" width="820" height="440" viewBox="0 0 820 440" font-family="sans-serif" font-size="13">
<rect width="820" height="440" fill="white"/>
<text x="410" y="22" text-anchor="middle" font-size="16">Strategic adversary demoted by the track record over rounds</text>
<line x1="74" y1="376.0" x2="560" y2="376.0" stroke="#e8e8e8"/>
<text x="66" y="380.0" text-anchor="end">0</text>
<line x1="74" y1="292.0" x2="560" y2="292.0" stroke="#e8e8e8"/>
<text x="66" y="296.0" text-anchor="end">0.05</text>
<line x1="74" y1="208.0" x2="560" y2="208.0" stroke="#e8e8e8"/>
<text x="66" y="212.0" text-anchor="end">0.11</text>
<line x1="74" y1="124.0" x2="560" y2="124.0" stroke="#e8e8e8"/>
<text x="66" y="128.0" text-anchor="end">0.16</text>
<line x1="74" y1="40.0" x2="560" y2="40.0" stroke="#e8e8e8"/>
<text x="66" y="44.0" text-anchor="end">0.22</text>
<line x1="74.0" y1="376" x2="74.0" y2="381" stroke="#333"/>
<text x="74.0" y="394" text-anchor="middle">0</text>
<line x1="195.5" y1="376" x2="195.5" y2="381" stroke="#333"/>
<text x="195.5" y="394" text-anchor="middle">1.75</text>
<line x1="317.0" y1="376" x2="317.0" y2="381" stroke="#333"/>
<text x="317.0" y="394" text-anchor="middle">3.50</text>
<line x1="438.5" y1="376" x2="438.5" y2="381" stroke="#333"/>
<text x="438.5" y="394" text-anchor="middle">5.25</text>
<line x1="560.0" y1="376" x2="560.0" y2="381" stroke="#333"/>
<text x="560.0" y="394" text-anchor="middle">7</text>
<line x1="74" y1="376" x2="560" y2="376" stroke="#333"/>
<line x1="74" y1="376" x2="74" y2="40" stroke="#333"/>
<text x="317" y="424" text-anchor="middle">round</text>
<text x="18" y="208" text-anchor="middle" transform="rotate(-90 18 208)">adversary share of won tasks</text>
<path d="M74.0 40.0 L143.4 209.6 L212.9 343.6 L282.3 323.7 L351.7 367.3 L421.1 376.0 L490.6 376.0 L560.0 376.0" fill="none" stroke="#2f6f9f" stroke-width="2.5"/>
<circle cx="74.0" cy="40.0" r="3" fill="#2f6f9f"/>
<circle cx="143.4" cy="209.6" r="3" fill="#2f6f9f"/>
<circle cx="212.9" cy="343.6" r="3" fill="#2f6f9f"/>
<circle cx="282.3" cy="323.7" r="3" fill="#2f6f9f"/>
<circle cx="351.7" cy="367.3" r="3" fill="#2f6f9f"/>
<circle cx="421.1" cy="376.0" r="3" fill="#2f6f9f"/>
<circle cx="490.6" cy="376.0" r="3" fill="#2f6f9f"/>
<circle cx="560.0" cy="376.0" r="3" fill="#2f6f9f"/>
<rect x="576" y="46" width="14" height="14" fill="#2f6f9f"/>
<text x="594" y="58">reliability selection</text>
<path d="M74.0 195.2 L143.4 376.0 L212.9 376.0 L282.3 376.0 L351.7 376.0 L421.1 376.0 L490.6 376.0 L560.0 376.0" fill="none" stroke="#c25a3d" stroke-width="2.5"/>
<circle cx="74.0" cy="195.2" r="3" fill="#c25a3d"/>
<circle cx="143.4" cy="376.0" r="3" fill="#c25a3d"/>
<circle cx="212.9" cy="376.0" r="3" fill="#c25a3d"/>
<circle cx="282.3" cy="376.0" r="3" fill="#c25a3d"/>
<circle cx="351.7" cy="376.0" r="3" fill="#c25a3d"/>
<circle cx="421.1" cy="376.0" r="3" fill="#c25a3d"/>
<circle cx="490.6" cy="376.0" r="3" fill="#c25a3d"/>
<circle cx="560.0" cy="376.0" r="3" fill="#c25a3d"/>
<rect x="576" y="68" width="14" height="14" fill="#c25a3d"/>
<text x="594" y="80">raw selection</text>
</svg>