<svg xmlns="http://www.w3.org/2000/svg" width="720" height="440" viewBox="0 0 720 440" font-family="sans-serif" font-size="13">
<rect width="720" height="440" fill="white"/>
<text x="360" y="22" text-anchor="middle" font-size="16">Completion recovery vs track-record length</text>
<line x1="74" y1="376.0" x2="560" y2="376.0" stroke="#e8e8e8"/>
<text x="66" y="380.0" text-anchor="end">0</text>
<line x1="74" y1="292.0" x2="560" y2="292.0" stroke="#e8e8e8"/>
<text x="66" y="296.0" text-anchor="end">0.18</text>
<line x1="74" y1="208.0" x2="560" y2="208.0" stroke="#e8e8e8"/>
<text x="66" y="212.0" text-anchor="end">0.37</text>
<line x1="74" y1="124.0" x2="560" y2="124.0" stroke="#e8e8e8"/>
<text x="66" y="128.0" text-anchor="end">0.55</text>
<line x1="74" y1="40.0" x2="560" y2="40.0" stroke="#e8e8e8"/>
<text x="66" y="44.0" text-anchor="end">0.74</text>
<line x1="74.0" y1="376" x2="74.0" y2="381" stroke="#333"/>
<text x="74.0" y="394" text-anchor="middle">2</text>
<line x1="195.5" y1="376" x2="195.5" y2="381" stroke="#333"/>
<text x="195.5" y="394" text-anchor="middle">11.50</text>
<line x1="317.0" y1="376" x2="317.0" y2="381" stroke="#333"/>
<text x="317.0" y="394" text-anchor="middle">21</text>
<line x1="438.5" y1="376" x2="438.5" y2="381" stroke="#333"/>
<text x="438.5" y="394" text-anchor="middle">30.50</text>
<line x1="560.0" y1="376" x2="560.0" y2="381" stroke="#333"/>
<text x="560.0" y="394" text-anchor="middle">40</text>
<line x1="74" y1="376" x2="560" y2="376" stroke="#333"/>
<line x1="74" y1="376" x2="74" y2="40" stroke="#333"/>
<text x="317" y="424" text-anchor="middle">track-record length (prior attempts)</text>
<text x="18" y="208" text-anchor="middle" transform="rotate(-90 18 208)">task completion rate</text>
<path d="M74.0 260.4 L112.4 248.7 L176.3 239.8 L304.2 221.6 L560.0 227.6" fill="none" stroke="#2f6f9f" stroke-width="2.5"/>
<circle cx="74.0" cy="260.4" r="3" fill="#2f6f9f"/>
<circle cx="112.4" cy="248.7" r="3" fill="#2f6f9f"/>
<circle cx="176.3" cy="239.8" r="3" fill="#2f6f9f"/>
<circle cx="304.2" cy="221.6" r="3" fill="#2f6f9f"/>
<circle cx="560.0" cy="227.6" r="3" fill="#2f6f9f"/>
<rect x="576" y="46" width="14" height="14" fill="#2f6f9f"/>
<text x="594" y="58">raw self-report</text>
<path d="M74.0 127.6 L112.4 100.5 L176.3 68.8 L304.2 49.7 L560.0 40.0" fill="none" stroke="#c25a3d" stroke-width="2.5"/>
<circle cx="74.0" cy="127.6" r="3" fill="#c25a3d"/>
<circle cx="112.4" cy="100.5" r="3" fill="#c25a3d"/>
<circle cx="176.3" cy="68.8" r="3" fill="#c25a3d"/>
<circle cx="304.2" cy="49.7" r="3" fill="#c25a3d"/>
<circle cx="560.0" cy="40.0" r="3" fill="#c25a3d"/>
<rect x="576" y="68" width="14" height="14" fill="#c25a3d"/>
<text x="594" y="80">reliability correction</text>
</svg>