<svg xmlns="http://www.w3.org/2000/svg" width="820" height="440" viewBox="0 0 820 440" font-family="sans-serif" font-size="13">
<rect width="820" height="440" fill="white"/>
<text x="410" y="22" text-anchor="middle" font-size="16">Live broker routing: cheap model's corrected bid vs the 0.70 barrier</text>
<line x1="74" y1="376.0" x2="560" y2="376.0" stroke="#e8e8e8"/>
<text x="66" y="380.0" text-anchor="end">0</text>
<line x1="74" y1="292.0" x2="560" y2="292.0" stroke="#e8e8e8"/>
<text x="66" y="296.0" text-anchor="end">0.21</text>
<line x1="74" y1="208.0" x2="560" y2="208.0" stroke="#e8e8e8"/>
<text x="66" y="212.0" text-anchor="end">0.42</text>
<line x1="74" y1="124.0" x2="560" y2="124.0" stroke="#e8e8e8"/>
<text x="66" y="128.0" text-anchor="end">0.64</text>
<line x1="74" y1="40.0" x2="560" y2="40.0" stroke="#e8e8e8"/>
<text x="66" y="44.0" text-anchor="end">0.85</text>
<line x1="74" y1="376.0" x2="560" y2="376.0" stroke="#333"/>
<line x1="74" y1="376" x2="74" y2="40" stroke="#333"/>
<text x="18" y="208" text-anchor="middle" transform="rotate(-90 18 208)">corrected confidence (barrier = 0.70)</text>
<text x="317" y="424" text-anchor="middle">turn (task); is_match falls below and escalates to sonnet</text>
<rect x="86.2" y="40.0" width="87.5" height="336.0" fill="#2f6f9f"/>
<text x="129.9" y="36.0" text-anchor="middle" font-size="11">0.85</text>
<text x="135" y="394" text-anchor="middle">frac_to_dec</text>
<rect x="207.7" y="40.0" width="87.5" height="336.0" fill="#2f6f9f"/>
<text x="251.4" y="36.0" text-anchor="middle" font-size="11">0.85</text>
<text x="256" y="394" text-anchor="middle">mult_str</text>
<rect x="329.1" y="40.0" width="87.5" height="336.0" fill="#2f6f9f"/>
<text x="372.9" y="36.0" text-anchor="middle" font-size="11">0.85</text>
<text x="378" y="394" text-anchor="middle">word_break</text>
<rect x="450.6" y="140.8" width="87.5" height="235.2" fill="#2f6f9f"/>
<text x="494.4" y="136.8" text-anchor="middle" font-size="11">0.59</text>
<text x="499" y="394" text-anchor="middle">is_match</text>
<rect x="576" y="46" width="14" height="14" fill="#2f6f9f"/>
<text x="594" y="58">haiku corrected bid</text>
</svg>